<?xml version="1.0" encoding="UTF-8" standalone="no"?>
<svg
   xmlns:dc="http://purl.org/dc/elements/1.1/"
   xmlns:cc="http://creativecommons.org/ns#"
   xmlns:rdf="http://www.w3.org/1999/02/22-rdf-syntax-ns#"
   xmlns:svg="http://www.w3.org/2000/svg"
   xmlns="http://www.w3.org/2000/svg"
   xmlns:xlink="http://www.w3.org/1999/xlink"
   xmlns:sodipodi="http://sodipodi.sourceforge.net/DTD/sodipodi-0.dtd"
   xmlns:inkscape="http://www.inkscape.org/namespaces/inkscape"
   width="780"
   height="480"
   id="svg2521"
   sodipodi:version="0.32"
   inkscape:version="0.48.2 r9819"
   sodipodi:docname="OpAmpTransistorLevel_Colored_Labeled.svg"
   inkscape:output_extension="org.inkscape.output.svg.inkscape"
   version="1.0">
  <metadata
     id="metadata2844">
    <rdf:RDF>
      <cc:Work
         rdf:about="">
        <dc:format>image/svg+xml</dc:format>
        <dc:type
           rdf:resource="http://purl.org/dc/dcmitype/StillImage" />
        <dc:title></dc:title>
      </cc:Work>
    </rdf:RDF>
  </metadata>
  <sodipodi:namedview
     inkscape:window-height="856"
     inkscape:window-width="1280"
     inkscape:pageshadow="2"
     inkscape:pageopacity="0.0"
     guidetolerance="10.0"
     gridtolerance="10.0"
     objecttolerance="10.0"
     borderopacity="1.0"
     bordercolor="#666666"
     pagecolor="#ffffff"
     id="base"
     showgrid="true"
     width="780px"
     height="480px"
     borderlayer="false"
     inkscape:zoom="1.0880786"
     inkscape:cx="327.87517"
     inkscape:cy="221.87634"
     inkscape:window-x="-4"
     inkscape:window-y="0"
     inkscape:current-layer="svg2521"
     inkscape:window-maximized="0" />
  <defs
     id="defs2523">
    <marker
       id="join"
       viewBox="0,0 1,1"
       refX="0.5"
       refY="0.5"
       markerWidth="6"
       markerHeight="6">
      <circle
         r="0.5"
         cx="0.5"
         cy="0.5"
         id="circle2526"
         sodipodi:cx="0.5"
         sodipodi:cy="0.5"
         sodipodi:rx="0.5"
         sodipodi:ry="0.5"
         style="fill:#000000;stroke:none" />
    </marker>
    <g
       id="term">
      <circle
         r="3"
         id="circle2529"
         cx="0"
         cy="0"
         sodipodi:cx="0"
         sodipodi:cy="0"
         sodipodi:rx="3"
         sodipodi:ry="3"
         style="fill:#ffffff;stroke:#000000"
         d="M 3,0 C 3,1.6568542 1.6568542,3 0,3 -1.6568542,3 -3,1.6568542 -3,0 c 0,-1.6568542 1.3431458,-3 3,-3 1.6568542,0 3,1.3431458 3,3 z" />
    </g>
    <g
       id="res"
       style="fill:none;stroke:#000000">
      <polyline
         points="-20,0 -17.5,-6 -12.5,6 -7.5,-6 -2.5,6 2.5,-6 7.5,6 12.5,-6 17.5,6 20,0"
         id="polyline2532"
         style="stroke-width:1.5;stroke-linecap:round" />
    </g>
    <g
       id="bjt-npn"
       style="fill:none;stroke:#000000;stroke-linecap:round">
      <circle
         r="19"
         cx="8"
         id="circle2535"
         cy="0"
         sodipodi:cx="8"
         sodipodi:cy="0"
         sodipodi:rx="19"
         sodipodi:ry="19"
         style="fill:#ffffff;stroke:#000000"
         d="M 27,0 C 27,10.49341 18.49341,19 8,19 -2.4934102,19 -11,10.49341 -11,0 c 0,-10.49341 8.5065898,-19 19,-19 10.49341,0 19,8.50659 19,19 z" />
      <rect
         x="0"
         y="-15"
         width="3"
         height="30"
         id="rect2537"
         style="fill:#000000;stroke:none" />
      <line
         x1="3"
         y1="-8"
         x2="20"
         y2="-15"
         id="line2539" />
      <line
         x1="3"
         y1="8"
         x2="20"
         y2="15"
         id="line2541" />
      <polygon
         points="0,0 8,4 8,-4 0,0 "
         transform="matrix(-0.9271839,-0.3746066,0.3746066,-0.9271839,20,15)"
         id="polygon2543"
         style="fill:#000000;stroke:none" />
    </g>
    <g
       id="bjt-pnp"
       style="fill:none;stroke:#000000;stroke-linecap:round">
      <circle
         r="19"
         cx="8"
         id="circle2546"
         cy="0"
         sodipodi:cx="8"
         sodipodi:cy="0"
         sodipodi:rx="19"
         sodipodi:ry="19"
         style="fill:#ffffff;stroke:#000000"
         d="M 27,0 C 27,10.49341 18.49341,19 8,19 -2.4934102,19 -11,10.49341 -11,0 c 0,-10.49341 8.5065898,-19 19,-19 10.49341,0 19,8.50659 19,19 z" />
      <rect
         x="0"
         y="-15"
         width="3"
         height="30"
         id="rect2548"
         style="fill:#000000;stroke:none" />
      <line
         x1="3"
         y1="-8"
         x2="20"
         y2="-15"
         id="line2550" />
      <line
         x1="3"
         y1="8"
         x2="20"
         y2="15"
         id="line2552" />
      <polygon
         points="0,0 8,4 8,-4 0,0 "
         transform="matrix(0.9271839,-0.3746066,0.3746066,0.9271839,3,-8)"
         id="polygon2554"
         style="fill:#000000;stroke:none" />
    </g>
    <g
       id="cap"
       style="fill:#000000;stroke:none">
      <rect
         x="-6"
         y="-10"
         width="2"
         height="20"
         id="rect2557" />
      <rect
         x="4"
         y="-10"
         width="2"
         height="20"
         id="rect2559" />
    </g>
  </defs>
  <use
     height="490"
     width="770"
     style="font-size:16px;font-family:Times New Roman, serif"
     id="use2563"
     y="150"
     x="80"
     xlink:href="#bjt-npn"
     transform="translate(10.000001,-5.1816407)" />
  <line
     style="font-size:16px;fill:none;stroke:#000000;font-family:Times New Roman, serif"
     id="line2565"
     y2="144.81836"
     x2="90"
     y1="144.81836"
     x1="60" />
  <use
     height="490"
     width="770"
     style="font-size:16px;font-family:Times New Roman, serif"
     id="use2567"
     y="150"
     x="50"
     xlink:href="#term"
     transform="translate(10.000001,-5.1816407)" />
  <g
     id="g2986"
     transform="translate(-4.4609375,-17.603516)">
    <text
       x="50"
       y="123"
       id="text2569"
       style="font-size:16px;text-anchor:middle;font-family:Times New Roman, serif">Non-inverting</text>
    <text
       x="50"
       y="139"
       id="text2571"
       style="font-size:16px;text-anchor:middle;font-family:Times New Roman, serif">input</text>
  </g>
  <text
     style="font-size:16px;text-anchor:middle;font-family:Times New Roman, serif"
     id="text2573"
     y="165.81836"
     x="60">3</text>
  <line
     style="font-size:16px;fill:none;stroke:#000000;font-family:Times New Roman, serif"
     id="line2575"
     y2="199.81836"
     x2="110"
     y1="159.81836"
     x1="110" />
  <use
     height="490"
     width="770"
     y="0"
     x="0"
     style="font-size:16px;font-family:Times New Roman, serif"
     id="use2577"
     transform="matrix(-1,0,0,1,130,214.81836)"
     xlink:href="#bjt-pnp" />
  <line
     style="font-size:16px;fill:none;stroke:#000000;font-family:Times New Roman, serif"
     id="line2579"
     y2="319.81836"
     x2="110"
     y1="229.81836"
     x1="110" />
  <use
     height="490"
     width="770"
     y="0"
     x="0"
     style="font-size:16px;font-family:Times New Roman, serif"
     id="use2581"
     transform="matrix(-1,0,0,1,130,334.81836)"
     xlink:href="#bjt-npn" />
  <line
     style="font-size:16px;fill:none;stroke:#000000;font-family:Times New Roman, serif"
     id="line2583"
     y2="394.81836"
     x2="110"
     y1="349.81836"
     x1="110" />
  <use
     height="490"
     width="770"
     y="0"
     x="0"
     style="font-size:16px;font-family:Times New Roman, serif"
     id="use2585"
     transform="matrix(0,1,-1,0,110,414.81836)"
     xlink:href="#res" />
  <text
     style="font-size:16px;text-anchor:start;font-family:Times New Roman, serif"
     id="text2587"
     y="419.81836"
     x="120">1 kΩ</text>
  <polyline
     style="font-size:16px;fill:none;stroke:#000000;font-family:Times New Roman, serif"
     id="polyline2589"
     points="100,440 100,460 740,460"
     transform="translate(10.000001,-5.1816407)" />
  <line
     style="font-size:16px;fill:none;stroke:#000000;marker-end:url(#join);font-family:Times New Roman, serif"
     id="line2591"
     y2="374.81836"
     x2="110"
     y1="374.81836"
     x1="60" />
  <use
     height="490"
     width="770"
     style="font-size:16px;font-family:Times New Roman, serif"
     id="use2593"
     y="380"
     x="50"
     xlink:href="#term"
     transform="translate(10.000001,-5.1816407)" />
  <text
     style="font-size:16px;text-anchor:middle;font-family:Times New Roman, serif"
     id="text2595"
     y="363.81836"
     x="60">1</text>
  <g
     id="g2994"
     transform="translate(-10.5625,-7.21875)">
    <text
       x="50"
       y="401"
       id="text2597"
       style="font-size:16px;text-anchor:middle;font-family:Times New Roman, serif">Offset</text>
    <text
       x="50"
       y="417"
       id="text2599"
       style="font-size:16px;text-anchor:middle;font-family:Times New Roman, serif">null</text>
  </g>
  <use
     height="490"
     width="770"
     style="font-size:16px;font-family:Times New Roman, serif"
     id="use2601"
     y="290"
     x="135"
     xlink:href="#bjt-npn"
     transform="translate(10.000001,-5.1816407)" />
  <line
     style="font-size:16px;fill:none;stroke:#000000;marker-start:url(#join);font-family:Times New Roman, serif"
     id="line2603"
     y2="284.81836"
     x2="145"
     y1="284.81836"
     x1="110" />
  <line
     style="font-size:16px;fill:none;stroke:#000000;marker-end:url(#join);font-family:Times New Roman, serif"
     id="line2605"
     y2="334.81836"
     x2="165"
     y1="299.81836"
     x1="165" />
  <line
     style="font-size:16px;fill:none;stroke:#000000;marker-start:url(#join);font-family:Times New Roman, serif"
     id="line2607"
     y2="374.81836"
     x2="180"
     y1="334.81836"
     x1="180" />
  <use
     height="490"
     width="770"
     y="0"
     x="0"
     style="font-size:16px;font-family:Times New Roman, serif"
     id="use2609"
     transform="matrix(0,1,-1,0,180,394.81836)"
     xlink:href="#res" />
  <text
     style="font-size:16px;text-anchor:start;font-family:Times New Roman, serif"
     id="text2611"
     y="389.81836"
     x="190">50 kΩ</text>
  <line
     style="font-size:16px;fill:none;stroke:#000000;marker-end:url(#join);font-family:Times New Roman, serif"
     id="line2613"
     y2="454.81836"
     x2="180"
     y1="414.81836"
     x1="180" />
  <use
     height="490"
     width="770"
     style="font-size:16px;font-family:Times New Roman, serif"
     id="use2615"
     y="340"
     x="220"
     xlink:href="#bjt-npn"
     transform="translate(10.000001,-5.1816407)" />
  <line
     style="font-size:16px;fill:none;stroke:#000000;font-family:Times New Roman, serif"
     id="line2617"
     y2="334.81836"
     x2="230"
     y1="334.81836"
     x1="130" />
  <line
     style="font-size:16px;fill:none;stroke:#000000;font-family:Times New Roman, serif"
     id="line2619"
     y2="394.81836"
     x2="250"
     y1="349.81836"
     x1="250" />
  <use
     height="490"
     width="770"
     y="0"
     x="0"
     style="font-size:16px;font-family:Times New Roman, serif"
     id="use2621"
     transform="matrix(0,1,-1,0,250,414.81836)"
     xlink:href="#res" />
  <text
     style="font-size:16px;text-anchor:end;font-family:Times New Roman, serif"
     id="text2623"
     y="429.81836"
     x="240">1 kΩ</text>
  <line
     style="font-size:16px;fill:none;stroke:#000000;marker-end:url(#join);font-family:Times New Roman, serif"
     id="line2625"
     y2="454.81836"
     x2="250"
     y1="434.81836"
     x1="250" />
  <line
     style="font-size:16px;fill:none;stroke:#000000;marker-start:url(#join);font-family:Times New Roman, serif"
     id="line2627"
     y2="374.81836"
     x2="300"
     y1="374.81836"
     x1="250" />
  <use
     height="490"
     width="770"
     style="font-size:16px;font-family:Times New Roman, serif"
     id="use2629"
     y="380"
     x="290"
     xlink:href="#term"
     transform="translate(10.000001,-5.1816407)" />
  <text
     style="font-size:16px;text-anchor:middle;font-family:Times New Roman, serif"
     id="text2631"
     y="363.81836"
     x="300">5</text>
  <g
     id="g2998"
     transform="translate(19.4375,-12.400391)">
    <text
       x="290"
       y="401"
       id="text2633"
       style="font-size:16px;text-anchor:middle;font-family:Times New Roman, serif">Offset</text>
    <text
       x="290"
       y="417"
       id="text2635"
       style="font-size:16px;text-anchor:middle;font-family:Times New Roman, serif">null</text>
  </g>
  <use
     height="490"
     width="770"
     style="font-size:16px;font-family:Times New Roman, serif"
     id="use2637"
     y="220"
     x="220"
     xlink:href="#bjt-pnp"
     transform="translate(10.000001,-5.1816407)" />
  <line
     style="font-size:16px;fill:none;stroke:#000000;font-family:Times New Roman, serif"
     id="line2639"
     y2="214.81836"
     x2="230"
     y1="214.81836"
     x1="130" />
  <line
     style="font-size:16px;fill:none;stroke:#000000;font-family:Times New Roman, serif"
     id="line2641"
     y2="319.81836"
     x2="250"
     y1="229.81836"
     x1="250" />
  <use
     height="490"
     width="770"
     y="0"
     x="0"
     style="font-size:16px;font-family:Times New Roman, serif"
     id="use2643"
     transform="matrix(-1,0,0,1,270,144.81836)"
     xlink:href="#bjt-npn" />
  <line
     style="font-size:16px;fill:none;stroke:#000000;font-family:Times New Roman, serif"
     id="line2645"
     y2="144.81836"
     x2="300"
     y1="144.81836"
     x1="270" />
  <use
     height="490"
     width="770"
     style="font-size:16px;font-family:Times New Roman, serif"
     id="use2647"
     y="150"
     x="290"
     xlink:href="#term"
     transform="translate(10.000001,-5.1816407)" />
  <g
     id="g2990"
     transform="translate(20.960938,-17.072266)">
    <text
       x="290"
       y="123"
       id="text2649"
       style="font-size:16px;text-anchor:middle;font-family:Times New Roman, serif">Inverting</text>
    <text
       x="290"
       y="139"
       id="text2651"
       style="font-size:16px;text-anchor:middle;font-family:Times New Roman, serif">input</text>
  </g>
  <text
     style="font-size:16px;text-anchor:middle;font-family:Times New Roman, serif"
     id="text2653"
     y="165.81836"
     x="300">2</text>
  <line
     style="font-size:16px;fill:none;stroke:#000000;font-family:Times New Roman, serif"
     id="line2655"
     y2="199.81836"
     x2="250"
     y1="159.81836"
     x1="250" />
  <polyline
     style="font-size:16px;fill:none;stroke:#000000;font-family:Times New Roman, serif"
     id="polyline2657"
     points="155,275 155,20 740,20"
     transform="translate(10.000001,-5.1816407)" />
  <use
     height="490"
     width="770"
     style="font-size:16px;font-family:Times New Roman, serif"
     id="use2659"
     y="20"
     x="740"
     xlink:href="#term"
     transform="translate(10.000001,-5.1816407)" />
  <text
     style="font-size:16px;text-anchor:middle;font-family:Times New Roman, serif"
     id="text2661"
     y="35.818359"
     x="750">7</text>
  <text
     style="font-size:16px;font-style:italic;text-anchor:middle;font-family:Times New Roman, serif"
     id="text2663"
     font-style="italic"
     y="51.818359"
     x="750">V<tspan
   style="font-size:12px"
   id="tspan2665"
   font-size="12"
   dy="4">S<tspan
   style="font-style:normal"
   id="tspan2667"
   font-style="normal">+</tspan>
</tspan>
</text>
  <use
     height="490"
     width="770"
     y="0"
     x="0"
     style="font-size:16px;font-family:Times New Roman, serif"
     id="use2669"
     transform="matrix(-1,0,0,1,210,59.818359)"
     xlink:href="#bjt-pnp" />
  <line
     style="font-size:16px;fill:none;stroke:#000000;marker-start:url(#join);font-family:Times New Roman, serif"
     id="line2671"
     y2="44.818359"
     x2="190"
     y1="14.818359"
     x1="190" />
  <polyline
     style="font-size:16px;fill:none;stroke:#000000;font-family:Times New Roman, serif"
     id="polyline2673"
     points="100,135 100,110 240,110 240,135"
     transform="translate(10.000001,-5.1816407)" />
  <line
     style="font-size:16px;fill:none;stroke:#000000;marker-end:url(#join);font-family:Times New Roman, serif"
     id="line2675"
     y2="104.81836"
     x2="190"
     y1="74.818359"
     x1="190" />
  <line
     style="font-size:16px;fill:none;stroke:#000000;marker-start:url(#join);marker-end:url(#join);font-family:Times New Roman, serif"
     id="line2677"
     y2="104.81836"
     x2="235"
     y1="59.818359"
     x1="235" />
  <use
     height="490"
     width="770"
     style="font-size:16px;font-family:Times New Roman, serif"
     id="use2679"
     y="65"
     x="310"
     xlink:href="#bjt-pnp"
     transform="translate(10.000001,-5.1816407)" />
  <line
     style="font-size:16px;fill:none;stroke:#000000;font-family:Times New Roman, serif"
     id="line2681"
     y2="59.818359"
     x2="320"
     y1="59.818359"
     x1="210" />
  <line
     style="font-size:16px;fill:none;stroke:#000000;marker-start:url(#join);font-family:Times New Roman, serif"
     id="line2683"
     y2="44.818359"
     x2="340"
     y1="14.818359"
     x1="340" />
  <line
     style="font-size:16px;fill:none;stroke:#000000;font-family:Times New Roman, serif"
     id="line2685"
     y2="339.81836"
     x2="340"
     y1="74.818359"
     x1="340" />
  <polyline
     style="font-size:16px;fill:none;stroke:#000000;marker-start:url(#join);marker-end:url(#join);font-family:Times New Roman, serif"
     id="polyline2687"
     points="190,220 190,260 330,260"
     transform="translate(10.000001,-5.1816407)" />
  <use
     height="490"
     width="770"
     y="0"
     x="0"
     style="font-size:16px;font-family:Times New Roman, serif"
     id="use2689"
     transform="matrix(-1,0,0,1,360,354.81836)"
     xlink:href="#bjt-npn" />
  <line
     style="font-size:16px;fill:none;stroke:#000000;font-family:Times New Roman, serif"
     id="line2691"
     y2="394.81836"
     x2="340"
     y1="369.81836"
     x1="340" />
  <use
     height="490"
     width="770"
     y="0"
     x="0"
     style="font-size:16px;font-family:Times New Roman, serif"
     id="use2693"
     transform="matrix(0,1,-1,0,340,414.81836)"
     xlink:href="#res" />
  <text
     style="font-size:16px;text-anchor:start;font-family:Times New Roman, serif"
     id="text2695"
     y="419.81836"
     x="350">5 kΩ</text>
  <line
     style="font-size:16px;fill:none;stroke:#000000;marker-end:url(#join);font-family:Times New Roman, serif"
     id="line2697"
     y2="454.81836"
     x2="340"
     y1="434.81836"
     x1="340" />
  <use
     height="490"
     width="770"
     style="font-size:16px;font-family:Times New Roman, serif"
     id="use2699"
     y="360"
     x="400"
     xlink:href="#bjt-npn"
     transform="translate(10.000001,-5.1816407)" />
  <line
     style="font-size:16px;fill:none;stroke:#000000;font-family:Times New Roman, serif"
     id="line2701"
     y2="354.81836"
     x2="410"
     y1="354.81836"
     x1="360" />
  <line
     style="font-size:16px;fill:none;stroke:#000000;marker-end:url(#join);font-family:Times New Roman, serif"
     id="line2703"
     y2="454.81836"
     x2="430"
     y1="369.81836"
     x1="430" />
  <polyline
     style="font-size:16px;fill:none;stroke:#000000;marker-start:url(#join);marker-end:url(#join);font-family:Times New Roman, serif"
     id="polyline2705"
     points="375,360 375,320 420,320"
     transform="translate(10.000001,-5.1816407)" />
  <use
     height="490"
     width="770"
     y="0"
     x="0"
     style="font-size:16px;font-family:Times New Roman, serif"
     id="use2707"
     transform="matrix(-1,0,0,1,450,49.818359)"
     xlink:href="#bjt-pnp" />
  <line
     style="font-size:16px;fill:none;stroke:#000000;marker-start:url(#join);font-family:Times New Roman, serif"
     id="line2709"
     y2="34.818359"
     x2="430"
     y1="14.818359"
     x1="430" />
  <line
     style="font-size:16px;fill:none;stroke:#000000;font-family:Times New Roman, serif"
     id="line2711"
     y2="174.81836"
     x2="430"
     y1="64.818359"
     x1="430" />
  <use
     height="490"
     width="770"
     y="0"
     x="0"
     style="font-size:16px;font-family:Times New Roman, serif"
     id="use2713"
     transform="matrix(0,1,-1,0,430,194.81836)"
     xlink:href="#res" />
  <line
     style="font-size:16px;fill:none;stroke:#000000;font-family:Times New Roman, serif"
     id="line2715"
     y2="339.81836"
     x2="430"
     y1="214.81836"
     x1="430" />
  <text
     style="font-size:16px;text-anchor:end;font-family:Times New Roman, serif"
     id="text2717"
     y="199.81836"
     x="420">39 kΩ</text>
  <use
     height="490"
     width="770"
     y="0"
     x="0"
     style="font-size:16px;font-family:Times New Roman, serif"
     id="use2719"
     transform="matrix(-1,0,0,1,510,374.81836)"
     xlink:href="#bjt-npn" />
  <polyline
     style="font-size:16px;fill:none;stroke:#000000;marker-start:url(#join);font-family:Times New Roman, serif"
     id="polyline2721"
     points="240,285 480,285 480,365"
     transform="translate(10.000001,-5.1816407)" />
  <line
     style="font-size:16px;fill:none;stroke:#000000;marker-end:url(#join);font-family:Times New Roman, serif"
     id="line2723"
     y2="454.81836"
     x2="490"
     y1="389.81836"
     x1="490" />
  <use
     height="490"
     width="770"
     style="font-size:16px;font-family:Times New Roman, serif"
     id="use2725"
     y="300"
     x="520"
     xlink:href="#bjt-npn"
     transform="translate(10.000001,-5.1816407)" />
  <line
     style="font-size:16px;fill:none;stroke:#000000;marker-start:url(#join);font-family:Times New Roman, serif"
     id="line2727"
     y2="294.81836"
     x2="530"
     y1="294.81836"
     x1="490" />
  <line
     style="font-size:16px;fill:none;stroke:#000000;font-family:Times New Roman, serif"
     id="line2729"
     y2="394.81836"
     x2="550"
     y1="309.81836"
     x1="550" />
  <use
     height="490"
     width="770"
     y="0"
     x="0"
     style="font-size:16px;font-family:Times New Roman, serif"
     id="use2731"
     transform="matrix(0,1,-1,0,550,414.81836)"
     xlink:href="#res" />
  <text
     style="font-size:16px;text-anchor:end;font-family:Times New Roman, serif"
     id="text2733"
     y="419.81836"
     x="540">50 kΩ</text>
  <line
     style="font-size:16px;fill:none;stroke:#000000;marker-end:url(#join);font-family:Times New Roman, serif"
     id="line2735"
     y2="454.81836"
     x2="550"
     y1="434.81836"
     x1="550" />
  <use
     height="490"
     width="770"
     style="font-size:16px;font-family:Times New Roman, serif"
     id="use2737"
     y="340"
     x="580"
     xlink:href="#bjt-npn"
     transform="translate(10.000001,-5.1816407)" />
  <line
     style="font-size:16px;fill:none;stroke:#000000;marker-start:url(#join);font-family:Times New Roman, serif"
     id="line2739"
     y2="334.81836"
     x2="590"
     y1="334.81836"
     x1="550" />
  <line
     style="font-size:16px;fill:none;stroke:#000000;font-family:Times New Roman, serif"
     id="line2741"
     y2="394.81836"
     x2="610"
     y1="349.81836"
     x1="610" />
  <use
     height="490"
     width="770"
     y="0"
     x="0"
     style="font-size:16px;font-family:Times New Roman, serif"
     id="use2743"
     transform="matrix(0,1,-1,0,610,414.81836)"
     xlink:href="#res" />
  <text
     style="font-size:16px;text-anchor:end;font-family:Times New Roman, serif"
     id="text2745"
     y="419.81836"
     x="600">50 Ω</text>
  <line
     style="font-size:16px;fill:none;stroke:#000000;marker-end:url(#join);font-family:Times New Roman, serif"
     id="line2747"
     y2="454.81836"
     x2="610"
     y1="434.81836"
     x1="610" />
  <line
     style="font-size:16px;fill:none;stroke:#000000;marker-end:url(#join);font-family:Times New Roman, serif"
     id="line2749"
     y2="374.81836"
     x2="610"
     y1="374.81836"
     x1="510" />
  <line
     style="font-size:16px;fill:none;stroke:#000000;font-family:Times New Roman, serif"
     id="line2751"
     y2="234.81836"
     x2="550"
     y1="279.81836"
     x1="550" />
  <use
     height="490"
     width="770"
     y="0"
     x="0"
     style="font-size:16px;font-family:Times New Roman, serif"
     id="use2753"
     transform="matrix(0,1,-1,0,550,214.81836)"
     xlink:href="#res" />
  <text
     style="font-size:16px;text-anchor:start;font-family:Times New Roman, serif"
     id="text2755"
     y="219.81836"
     x="560">7.5 kΩ</text>
  <line
     style="font-size:16px;fill:none;stroke:#000000;font-family:Times New Roman, serif"
     id="line2757"
     y2="154.81836"
     x2="550"
     y1="194.81836"
     x1="550" />
  <use
     height="490"
     width="770"
     y="0"
     x="0"
     style="font-size:16px;font-family:Times New Roman, serif"
     id="use2759"
     transform="matrix(0,1,-1,0,550,134.81836)"
     xlink:href="#res" />
  <text
     style="font-size:16px;text-anchor:start;font-family:Times New Roman, serif"
     id="text2761"
     y="139.81836"
     x="560">4.5 kΩ</text>
  <line
     style="font-size:16px;fill:none;stroke:#000000;marker-end:url(#join);font-family:Times New Roman, serif"
     id="line2763"
     y2="94.818359"
     x2="550"
     y1="114.81836"
     x1="550" />
  <use
     height="490"
     width="770"
     style="font-size:16px;font-family:Times New Roman, serif"
     id="use2765"
     y="180"
     x="580"
     xlink:href="#bjt-npn"
     transform="translate(10.000001,-5.1816407)" />
  <line
     style="font-size:16px;fill:none;stroke:#000000;marker-start:url(#join);font-family:Times New Roman, serif"
     id="line2767"
     y2="174.81836"
     x2="590"
     y1="174.81836"
     x1="550" />
  <line
     style="font-size:16px;fill:none;stroke:#000000;font-family:Times New Roman, serif"
     id="line2769"
     y2="319.81836"
     x2="610"
     y1="189.81836"
     x1="610" />
  <line
     style="font-size:16px;fill:none;stroke:#000000;marker-start:url(#join);marker-end:url(#join);font-family:Times New Roman, serif"
     id="line2771"
     y2="254.81836"
     x2="610"
     y1="254.81836"
     x1="550" />
  <line
     style="font-size:16px;fill:none;stroke:#000000;marker-start:url(#join);font-family:Times New Roman, serif"
     id="line2773"
     y2="179.81836"
     x2="490"
     y1="279.81836"
     x1="490" />
  <use
     height="490"
     width="770"
     y="0"
     x="0"
     style="font-size:16px;font-family:Times New Roman, serif"
     id="use2775"
     transform="matrix(0,1,-1,0,490,174.81836)"
     xlink:href="#cap" />
  <polyline
     style="font-size:16px;fill:none;stroke:#000000;marker-end:url(#join);font-family:Times New Roman, serif"
     id="polyline2777"
     points="480,175 480,100 600,100"
     transform="translate(10.000001,-5.1816407)" />
  <text
     style="font-size:16px;text-anchor:start;font-family:Times New Roman, serif"
     id="text2779"
     y="179.81836"
     x="503">30 pF</text>
  <use
     height="490"
     width="770"
     style="font-size:16px;font-family:Times New Roman, serif"
     id="use2781"
     y="55"
     x="580"
     xlink:href="#bjt-pnp"
     transform="translate(10.000001,-5.1816407)" />
  <line
     style="font-size:16px;fill:none;stroke:#000000;font-family:Times New Roman, serif"
     id="line2783"
     y2="49.818359"
     x2="590"
     y1="49.818359"
     x1="450" />
  <polyline
     style="font-size:16px;fill:none;stroke:#000000;marker-start:url(#join);marker-end:url(#join);font-family:Times New Roman, serif"
     id="polyline2785"
     points="420,85 465,85 465,55"
     transform="translate(10.000001,-5.1816407)" />
  <line
     style="font-size:16px;fill:none;stroke:#000000;marker-start:url(#join);font-family:Times New Roman, serif"
     id="line2787"
     y2="34.818359"
     x2="610"
     y1="14.818359"
     x1="610" />
  <line
     style="font-size:16px;fill:none;stroke:#000000;font-family:Times New Roman, serif"
     id="line2789"
     y2="159.81836"
     x2="610"
     y1="64.818359"
     x1="610" />
  <use
     height="490"
     width="770"
     y="0"
     x="0"
     style="font-size:16px;font-family:Times New Roman, serif"
     id="use2791"
     transform="matrix(-1,0,0,1,670,119.81836)"
     xlink:href="#bjt-npn" />
  <use
     height="490"
     width="770"
     style="font-size:16px;font-family:Times New Roman, serif"
     id="use2793"
     y="85"
     x="680"
     xlink:href="#bjt-npn"
     transform="translate(10.000001,-5.1816407)" />
  <line
     style="font-size:16px;fill:none;stroke:#000000;marker-start:url(#join);font-family:Times New Roman, serif"
     id="line2795"
     y2="79.818359"
     x2="690"
     y1="79.818359"
     x1="610" />
  <line
     style="font-size:16px;fill:none;stroke:#000000;marker-start:url(#join);font-family:Times New Roman, serif"
     id="line2797"
     y2="104.81836"
     x2="650"
     y1="79.818359"
     x1="650" />
  <line
     style="font-size:16px;fill:none;stroke:#000000;marker-end:url(#join);font-family:Times New Roman, serif"
     id="line2799"
     y2="119.81836"
     x2="710"
     y1="119.81836"
     x1="670" />
  <line
     style="font-size:16px;fill:none;stroke:#000000;marker-start:url(#join);font-family:Times New Roman, serif"
     id="line2801"
     y2="64.818359"
     x2="710"
     y1="14.818359"
     x1="710" />
  <line
     style="font-size:16px;fill:none;stroke:#000000;font-family:Times New Roman, serif"
     id="line2803"
     y2="134.81836"
     x2="710"
     y1="94.818359"
     x1="710" />
  <use
     height="490"
     width="770"
     y="0"
     x="0"
     style="font-size:16px;font-family:Times New Roman, serif"
     id="use2805"
     transform="matrix(0,1,-1,0,710,154.81836)"
     xlink:href="#res" />
  <text
     style="font-size:16px;text-anchor:end;font-family:Times New Roman, serif"
     id="text2807"
     y="169.8125"
     x="701.9375">25 Ω</text>
  <polyline
     style="font-size:16px;fill:none;stroke:#000000;marker-end:url(#join);font-family:Times New Roman, serif"
     id="polyline2809"
     points="640,140 640,195 700,195"
     transform="translate(10.000001,-5.1816407)" />
  <line
     style="font-size:16px;fill:none;stroke:#000000;font-family:Times New Roman, serif"
     id="line2811"
     y2="219.81836"
     x2="710"
     y1="174.81836"
     x1="710" />
  <use
     height="490"
     width="770"
     y="0"
     x="0"
     style="font-size:16px;font-family:Times New Roman, serif"
     id="use2813"
     transform="matrix(0,1,-1,0,710,239.81836)"
     xlink:href="#res" />
  <text
     style="font-size:16px;text-anchor:end;font-family:Times New Roman, serif"
     id="text2815"
     y="244.81836"
     x="700">50 Ω</text>
  <line
     style="font-size:16px;fill:none;stroke:#000000;font-family:Times New Roman, serif"
     id="line2817"
     y2="279.81836"
     x2="710"
     y1="259.81836"
     x1="710" />
  <use
     height="490"
     width="770"
     style="font-size:16px;font-family:Times New Roman, serif"
     id="use2819"
     y="300"
     x="680"
     xlink:href="#bjt-pnp"
     transform="translate(10.000001,-5.1816407)" />
  <line
     style="font-size:16px;fill:none;stroke:#000000;marker-start:url(#join);font-family:Times New Roman, serif"
     id="line2821"
     y2="294.81836"
     x2="690"
     y1="294.81836"
     x1="610" />
  <line
     style="font-size:16px;fill:none;stroke:#000000;marker-end:url(#join);font-family:Times New Roman, serif"
     id="line2823"
     y2="454.81836"
     x2="710"
     y1="309.81836"
     x1="710" />
  <line
     style="font-size:16px;fill:none;stroke:#000000;marker-start:url(#join);font-family:Times New Roman, serif"
     id="line2825"
     y2="204.81836"
     x2="750"
     y1="204.81836"
     x1="710" />
  <use
     height="490"
     width="770"
     style="font-size:16px;font-family:Times New Roman, serif"
     id="use2827"
     y="210"
     x="740"
     xlink:href="#term"
     transform="translate(10.000001,-5.1816407)" />
  <text
     style="font-size:16px;text-anchor:middle;font-family:Times New Roman, serif"
     id="text2829"
     y="193.81836"
     x="750">6</text>
  <text
     style="font-size:16px;text-anchor:middle;font-family:Times New Roman, serif"
     id="text2831"
     y="220.6543"
     x="752.75">Output</text>
  <use
     height="490"
     width="770"
     style="font-size:16px;font-family:Times New Roman, serif"
     id="use2833"
     y="460"
     x="740"
     xlink:href="#term"
     transform="translate(10.000001,-5.1816407)" />
  <text
     style="font-size:16px;text-anchor:middle;font-family:Times New Roman, serif"
     id="text2835"
     y="443.81836"
     x="750">4</text>
  <text
     style="font-size:16px;font-style:italic;text-anchor:middle;font-family:Times New Roman, serif"
     id="text2837"
     font-style="italic"
     y="475.81836"
     x="750">V<tspan
   style="font-size:12px"
   id="tspan2839"
   font-size="12"
   dy="4">S<tspan
   style="font-style:normal"
   id="tspan2841"
   font-style="normal">−</tspan>
</tspan>
</text>
  <text
     style="font-size:16px;text-anchor:start;font-family:Times New Roman, serif"
     id="text7911"
     y="136.86719"
     x="119.4375">Q1</text>
  <text
     style="font-size:16px;text-anchor:start;font-family:Times New Roman, serif"
     id="text7913"
     y="40.835938"
     x="222.39063">Q8</text>
  <text
     style="font-size:16px;text-anchor:start;font-family:Times New Roman, serif"
     id="text7915"
     y="40.835938"
     x="292.39063">Q9</text>
  <text
     style="font-size:16px;text-anchor:start;font-family:Times New Roman, serif"
     id="text7917"
     y="30.835938"
     x="462.39063">Q12</text>
  <text
     style="font-size:16px;text-anchor:start;font-family:Times New Roman, serif"
     id="text7919"
     y="30.835938"
     x="552.39063">Q13</text>
  <text
     style="font-size:16px;text-anchor:start;font-family:Times New Roman, serif"
     id="text7921"
     y="66.867188"
     x="649.4375">Q14</text>
  <text
     style="font-size:16px;text-anchor:start;font-family:Times New Roman, serif"
     id="text7923"
     y="150.83594"
     x="672.39063">Q17</text>
  <text
     style="font-size:16px;text-anchor:start;font-family:Times New Roman, serif"
     id="text7925"
     y="316.86719"
     x="649.4375">Q20</text>
  <text
     style="font-size:16px;text-anchor:start;font-family:Times New Roman, serif"
     id="text7927"
     y="136.86719"
     x="219.4375">Q2</text>
  <text
     style="font-size:16px;text-anchor:start;font-family:Times New Roman, serif"
     id="text7929"
     y="190.83594"
     x="132.39063">Q3</text>
  <text
     style="font-size:16px;text-anchor:start;font-family:Times New Roman, serif"
     id="text7931"
     y="190.83594"
     x="202.39063">Q4</text>
  <text
     style="font-size:16px;text-anchor:start;font-family:Times New Roman, serif"
     id="text7933"
     y="256.86719"
     x="129.4375">Q7</text>
  <text
     style="font-size:16px;text-anchor:start;font-family:Times New Roman, serif"
     id="text7935"
     y="370.83594"
     x="122.39063">Q5</text>
  <text
     style="font-size:16px;text-anchor:start;font-family:Times New Roman, serif"
     id="text7937"
     y="360.83594"
     x="252.39063">Q6</text>
  <text
     style="font-size:16px;text-anchor:start;font-family:Times New Roman, serif"
     id="text7939"
     y="330.83594"
     x="353.00781">Q10</text>
  <text
     style="font-size:16px;text-anchor:start;font-family:Times New Roman, serif"
     id="text7941"
     y="386.86719"
     x="389.4375">Q11</text>
  <text
     style="font-size:16px;text-anchor:start;font-family:Times New Roman, serif"
     id="text7943"
     y="356.86719"
     x="519.4375">Q22</text>
  <text
     style="font-size:16px;text-anchor:start;font-family:Times New Roman, serif"
     id="text7945"
     y="326.86719"
     x="499.4375">Q15</text>
  <text
     style="font-size:16px;text-anchor:start;font-family:Times New Roman, serif"
     id="text7947"
     y="366.86719"
     x="559.4375">Q19</text>
  <text
     style="font-size:16px;text-anchor:start;font-family:Times New Roman, serif"
     id="text7949"
     y="156.86719"
     x="559.4375">Q16</text>
</svg>
